<svg width="17" height="18" viewBox="0 0 17 18" fill="none" xmlns="http://www.w3.org/2000/svg">
<path d="M0.293011 15.2931L6.58601 9.00008L0.293011 2.70708C0.110853 2.51848 0.010058 2.26588 0.0123364 2.00368C0.0146148 1.74148 0.119784 1.49067 0.305192 1.30526C0.4906 1.11985 0.741413 1.01469 1.00361 1.01241C1.26581 1.01013 1.51841 1.11092 1.70701 1.29308L8.00001 7.58608L14.293 1.29308C14.3853 1.19757 14.4956 1.12139 14.6176 1.06898C14.7396 1.01657 14.8708 0.988985 15.0036 0.987831C15.1364 0.986677 15.2681 1.01198 15.391 1.06226C15.5139 1.11254 15.6255 1.18679 15.7194 1.28069C15.8133 1.37458 15.8876 1.48623 15.9378 1.60913C15.9881 1.73202 16.0134 1.8637 16.0123 1.99648C16.0111 2.12926 15.9835 2.26048 15.9311 2.38249C15.8787 2.50449 15.8025 2.61483 15.707 2.70708L9.41401 9.00008L15.707 15.2931C15.8025 15.3853 15.8787 15.4957 15.9311 15.6177C15.9835 15.7397 16.0111 15.8709 16.0123 16.0037C16.0134 16.1365 15.9881 16.2681 15.9378 16.391C15.8876 16.5139 15.8133 16.6256 15.7194 16.7195C15.6255 16.8134 15.5139 16.8876 15.391 16.9379C15.2681 16.9882 15.1364 17.0135 15.0036 17.0123C14.8708 17.0112 14.7396 16.9836 14.6176 16.9312C14.4956 16.8788 14.3853 16.8026 14.293 16.7071L8.00001 10.4141L1.70701 16.7071C1.51841 16.8892 1.26581 16.99 1.00361 16.9878C0.741413 16.9855 0.4906 16.8803 0.305192 16.6949C0.119784 16.5095 0.0146148 16.2587 0.0123364 15.9965C0.010058 15.7343 0.110853 15.4817 0.293011 15.2931Z" fill="white"/>
</svg>
