<svg width="16" height="17" viewBox="0 0 16 17" fill="none" xmlns="http://www.w3.org/2000/svg">
<path d="M0.280712 14.3053L6.57371 8.01229L0.280712 1.71929C0.0985542 1.53069 -0.00224062 1.27808 3.78025e-05 1.01589C0.00231622 0.75369 0.107485 0.502878 0.292894 0.31747C0.478302 0.132062 0.729114 0.0268924 0.991311 0.0246139C1.25351 0.0223355 1.50611 0.12313 1.69471 0.305288L7.98771 6.59829L14.2807 0.305288C14.373 0.209778 14.4833 0.133596 14.6053 0.0811869C14.7273 0.0287779 14.8585 0.00119157 14.9913 3.77571e-05C15.1241 -0.00111606 15.2558 0.0241854 15.3787 0.0744663C15.5016 0.124747 15.6132 0.199 15.7071 0.292893C15.801 0.386786 15.8753 0.498438 15.9255 0.621334C15.9758 0.744231 16.0011 0.87591 16 1.00869C15.9988 1.14147 15.9712 1.27269 15.9188 1.39469C15.8664 1.5167 15.7902 1.62704 15.6947 1.71929L9.40171 8.01229L15.6947 14.3053C15.7902 14.3975 15.8664 14.5079 15.9188 14.6299C15.9712 14.7519 15.9988 14.8831 16 15.0159C16.0011 15.1487 15.9758 15.2803 15.9255 15.4032C15.8753 15.5261 15.801 15.6378 15.7071 15.7317C15.6132 15.8256 15.5016 15.8998 15.3787 15.9501C15.2558 16.0004 15.1241 16.0257 14.9913 16.0245C14.8585 16.0234 14.7273 15.9958 14.6053 15.9434C14.4833 15.891 14.373 15.8148 14.2807 15.7193L7.98771 9.42629L1.69471 15.7193C1.50611 15.9014 1.25351 16.0022 0.991311 16C0.729114 15.9977 0.478302 15.8925 0.292894 15.7071C0.107485 15.5217 0.00231622 15.2709 3.78025e-05 15.0087C-0.00224062 14.7465 0.0985542 14.4939 0.280712 14.3053Z" fill="white"/>
</svg>
