<svg width="16" height="17" viewBox="0 0 16 17" fill="none" xmlns="http://www.w3.org/2000/svg">
<path d="M3.33337 15.1667H12.6667C13.1971 15.1667 13.7058 14.956 14.0809 14.5809C14.456 14.2058 14.6667 13.6971 14.6667 13.1667V7.16667C14.6667 6.63624 14.456 6.12753 14.0809 5.75246C13.7058 5.37739 13.1971 5.16667 12.6667 5.16667H11.3334V4.50001C11.3334 3.61595 10.9822 2.7681 10.3571 2.14298C9.73194 1.51786 8.8841 1.16667 8.00004 1.16667C7.11599 1.16667 6.26814 1.51786 5.64302 2.14298C5.0179 2.7681 4.66671 3.61595 4.66671 4.50001V5.16667H3.33337C2.80294 5.16667 2.29423 5.37739 1.91916 5.75246C1.54409 6.12753 1.33337 6.63624 1.33337 7.16667V13.1667C1.33337 13.6971 1.54409 14.2058 1.91916 14.5809C2.29423 14.956 2.80294 15.1667 3.33337 15.1667ZM6.00004 4.50001C6.00004 3.96957 6.21075 3.46086 6.58583 3.08579C6.9609 2.71072 7.46961 2.50001 8.00004 2.50001C8.53047 2.50001 9.03918 2.71072 9.41425 3.08579C9.78933 3.46086 10 3.96957 10 4.50001V5.16667H6.00004V4.50001ZM2.66671 7.16667C2.66671 6.98986 2.73695 6.82029 2.86197 6.69527C2.98699 6.57024 3.15656 6.50001 3.33337 6.50001H12.6667C12.8435 6.50001 13.0131 6.57024 13.1381 6.69527C13.2631 6.82029 13.3334 6.98986 13.3334 7.16667V13.1667C13.3334 13.3435 13.2631 13.5131 13.1381 13.6381C13.0131 13.7631 12.8435 13.8333 12.6667 13.8333H3.33337C3.15656 13.8333 2.98699 13.7631 2.86197 13.6381C2.73695 13.5131 2.66671 13.3435 2.66671 13.1667V7.16667ZM6.66671 10.1667C6.66671 9.90296 6.74491 9.64518 6.89141 9.42591C7.03792 9.20665 7.24616 9.03575 7.4898 8.93483C7.73343 8.83392 8.00152 8.80751 8.26016 8.85896C8.5188 8.91041 8.75638 9.03739 8.94285 9.22386C9.12932 9.41033 9.25631 9.64791 9.30775 9.90655C9.3592 10.1652 9.3328 10.4333 9.23188 10.6769C9.13096 10.9206 8.96007 11.1288 8.7408 11.2753C8.52154 11.4218 8.26375 11.5 8.00004 11.5C7.64642 11.5 7.30728 11.3595 7.05723 11.1095C6.80718 10.8594 6.66671 10.5203 6.66671 10.1667Z" fill="white"/>
</svg>
