<svg width="18" height="16" viewBox="0 0 18 16" fill="none" xmlns="http://www.w3.org/2000/svg">
<path d="M16.875 2.375C17.2892 2.375 17.625 2.03921 17.625 1.625C17.625 1.21079 17.2892 0.875 16.875 0.875V2.375ZM1.125 0.875C0.710786 0.875 0.375 1.21079 0.375 1.625C0.375 2.03921 0.710786 2.375 1.125 2.375V0.875ZM16.875 0.875H1.125V2.375H16.875V0.875Z" fill="#160042"/>
<path d="M16.875 8.75C17.2892 8.75 17.625 8.41421 17.625 8C17.625 7.58579 17.2892 7.25 16.875 7.25V8.75ZM1.125 7.25C0.710786 7.25 0.375 7.58579 0.375 8C0.375 8.41421 0.710786 8.75 1.125 8.75V7.25ZM16.875 7.25H1.125V8.75H16.875V7.25Z" fill="#160042"/>
<path d="M16.875 15.125C17.2892 15.125 17.625 14.7892 17.625 14.375C17.625 13.9608 17.2892 13.625 16.875 13.625V15.125ZM1.125 13.625C0.710786 13.625 0.375 13.9608 0.375 14.375C0.375 14.7892 0.710786 15.125 1.125 15.125V13.625ZM16.875 13.625H1.125V15.125H16.875V13.625Z" fill="#160042"/>
</svg>
