<svg width="94" height="148" viewBox="0 0 94 148" fill="none" xmlns="http://www.w3.org/2000/svg">
<path d="M67.948 61.4999L51.9101 20.2992C50.2667 16.0773 44.3049 16.0427 42.6126 20.2453L26 61.4999" stroke="white" stroke-width="5"/>
<line x1="36.8904" y1="34.6168" x2="56.7979" y2="27.507" stroke="white" stroke-width="5"/>
<line x1="30.5257" y1="49.5353" x2="61.8089" y2="38.8706" stroke="white" stroke-width="5"/>
<circle cx="47.685" cy="8.53179" r="6.03179" stroke="white" stroke-width="5"/>
<path d="M47 53.9998C37.7043 53.9998 28.6173 56.7563 20.8882 61.9207C13.1591 67.0851 7.135 74.4255 3.57768 83.0136C0.0203642 91.6018 -0.910392 101.052 0.903113 110.169C2.71662 119.286 7.19293 127.661 13.766 134.234C20.3391 140.807 28.7137 145.283 37.8308 147.097C46.9479 148.91 56.398 147.979 64.9861 144.422C73.5743 140.865 80.9146 134.841 86.0791 127.112C91.2435 119.382 94 110.295 94 101C94 94.8276 92.7843 88.7159 90.4223 83.0136C88.0604 77.3113 84.5984 72.1301 80.234 67.7657C75.8697 63.4014 70.6884 59.9394 64.9861 57.5774C59.2838 55.2154 53.1721 53.9998 47 53.9998ZM47 77.4998C49.7887 77.4998 52.5148 78.3267 54.8336 79.876C57.1523 81.4254 58.9595 83.6275 60.0267 86.2039C61.0939 88.7803 61.3731 91.6154 60.8291 94.3505C60.285 97.0857 58.9421 99.598 56.9702 101.57C54.9983 103.542 52.4859 104.885 49.7508 105.429C47.0157 105.973 44.1806 105.694 41.6042 104.626C39.0277 103.559 36.8256 101.752 35.2763 99.4333C33.727 97.1146 32.9 94.3885 32.9 91.5997C32.9 87.8602 34.3855 84.2738 37.0298 81.6295C39.6741 78.9853 43.2605 77.4998 47 77.4998ZM47 138.6C37.8608 138.6 29.0372 135.257 22.1934 129.2C29.0415 123.151 37.8634 119.813 47 119.813C56.1367 119.813 64.9585 123.151 71.8066 129.2C64.9628 135.257 56.1392 138.6 47 138.6Z" fill="white"/>
</svg>
